<svg xmlns="http://www.w3.org/2000/svg" xmlns:xlink="http://www.w3.org/1999/xlink" width="140" zoomAndPan="magnify" viewBox="0 0 104.88 30.000001" height="40" preserveAspectRatio="xMidYMid meet" version="1.0"><defs><clipPath id="3ae8d09806"><path d="M 39.34375 4.546875 L 56.710938 4.546875 L 56.710938 24.566406 L 39.34375 24.566406 Z M 39.34375 4.546875 " clip-rule="nonzero"/></clipPath><clipPath id="209b80dd4f"><path d="M 83.179688 4.546875 L 100.546875 4.546875 L 100.546875 24.566406 L 83.179688 24.566406 Z M 83.179688 4.546875 " clip-rule="nonzero"/></clipPath><clipPath id="42465ffeab"><path d="M 58.386719 5.992188 L 81.484375 5.992188 L 81.484375 23.070312 L 58.386719 23.070312 Z M 58.386719 5.992188 " clip-rule="nonzero"/></clipPath><clipPath id="106af77941"><path d="M 6 0.984375 L 31 0.984375 L 31 12 L 6 12 Z M 6 0.984375 " clip-rule="nonzero"/></clipPath><clipPath id="c715678abb"><path d="M 4.535156 7 L 17 7 L 17 27.839844 L 4.535156 27.839844 Z M 4.535156 7 " clip-rule="nonzero"/></clipPath><clipPath id="a50ad75734"><path d="M 19 7 L 31.390625 7 L 31.390625 27.839844 L 19 27.839844 Z M 19 7 " clip-rule="nonzero"/></clipPath></defs><g clip-path="url(#3ae8d09806)"><path fill="#000000" d="M 56.273438 13.6875 L 49.328125 13.6875 C 49.089844 13.6875 48.894531 13.882812 48.894531 14.121094 L 48.894531 16.296875 C 48.894531 16.539062 49.089844 16.734375 49.328125 16.734375 L 52.800781 16.734375 L 52.800781 17.058594 C 52.800781 19.453125 51.234375 21.085938 48.460938 21.085938 C 45.222656 21.085938 43.253906 18.671875 43.253906 14.523438 C 43.253906 10.429688 45.175781 8.027344 48.351562 8.027344 C 50.5625 8.027344 51.667969 9.019531 52.46875 10.8125 C 52.539062 10.96875 52.695312 11.074219 52.867188 11.074219 L 56.050781 11.074219 C 56.175781 11.074219 56.269531 10.972656 56.273438 10.855469 C 56.273438 10.839844 56.269531 10.824219 56.265625 10.804688 C 55.359375 6.894531 52.355469 4.546875 48.273438 4.546875 C 42.851562 4.546875 39.347656 8.472656 39.347656 14.550781 C 39.347656 20.726562 42.785156 24.566406 48.324219 24.566406 C 53.414062 24.566406 56.707031 21.347656 56.707031 16.371094 L 56.707031 14.121094 C 56.707031 13.882812 56.511719 13.6875 56.273438 13.6875 Z M 56.273438 13.6875 " fill-opacity="1" fill-rule="nonzero"/></g><g clip-path="url(#209b80dd4f)"><path fill="#000000" d="M 97.101562 18.039062 C 96.910156 18.039062 96.75 18.167969 96.6875 18.347656 C 96.082031 20.109375 94.382812 21.085938 92.199219 21.085938 C 89.015625 21.085938 87.089844 18.671875 87.089844 14.550781 C 87.089844 10.441406 89.015625 8.027344 92.1875 8.027344 C 94.421875 8.027344 96.15625 9.195312 96.726562 11.179688 C 96.78125 11.371094 96.945312 11.511719 97.144531 11.511719 C 97.144531 11.511719 99.546875 11.511719 100.324219 11.511719 C 100.457031 11.507812 100.558594 11.394531 100.539062 11.265625 C 100.03125 7.363281 96.539062 4.546875 92.1875 4.546875 C 86.632812 4.546875 83.183594 8.386719 83.183594 14.5625 C 83.183594 20.734375 86.636719 24.566406 92.199219 24.566406 C 96.566406 24.566406 99.914062 22.046875 100.539062 18.292969 C 100.5625 18.160156 100.457031 18.039062 100.324219 18.039062 Z M 97.101562 18.039062 " fill-opacity="1" fill-rule="nonzero"/></g><g clip-path="url(#42465ffeab)"><path fill="#498205" d="M 75.453125 20.605469 C 75.101562 20.667969 74.84375 20.976562 74.84375 21.335938 L 74.84375 22.296875 C 74.84375 22.707031 75.175781 23.039062 75.585938 23.039062 L 80.742188 23.039062 C 81.152344 23.039062 81.484375 22.707031 81.484375 22.296875 L 81.484375 6.734375 C 81.484375 6.324219 81.152344 5.992188 80.742188 5.992188 L 78.878906 5.992188 C 78.738281 5.992188 78.601562 6.03125 78.484375 6.105469 L 73.984375 8.9375 L 69.789062 11.578125 L 65.589844 8.9375 L 61.09375 6.105469 C 60.976562 6.03125 60.839844 5.992188 60.699219 5.992188 L 59.128906 5.992188 C 58.71875 5.992188 58.386719 6.324219 58.386719 6.734375 L 58.386719 22.296875 C 58.386719 22.707031 58.71875 23.039062 59.128906 23.039062 L 66.402344 23.039062 C 66.8125 23.039062 67.144531 22.707031 67.144531 22.296875 L 67.144531 21.335938 C 67.144531 20.976562 66.886719 20.667969 66.53125 20.605469 C 63.324219 20.042969 63.324219 17.6875 63.324219 17.6875 L 63.324219 13.21875 L 69.414062 17.675781 C 69.644531 17.84375 69.949219 17.863281 70.199219 17.730469 L 78.664062 13.21875 L 78.664062 17.6875 C 78.664062 17.6875 78.664062 20.042969 75.453125 20.605469 Z M 75.453125 20.605469 " fill-opacity="1" fill-rule="nonzero"/></g><g clip-path="url(#106af77941)"><path fill="#498205" d="M 30.128906 6.011719 L 18.066406 0.984375 L 6.003906 6.011719 L 18.066406 11.039062 Z M 30.128906 6.011719 " fill-opacity="1" fill-rule="nonzero"/></g><g clip-path="url(#c715678abb)"><path fill="#498205" d="M 16.9375 28.042969 L 16.9375 13.011719 L 4.535156 7.84375 L 4.535156 22.878906 Z M 16.9375 28.042969 " fill-opacity="1" fill-rule="nonzero"/></g><g clip-path="url(#a50ad75734)"><path fill="#498205" d="M 19.195312 28.042969 L 19.195312 13.011719 L 31.597656 7.84375 L 31.597656 22.878906 Z M 19.195312 28.042969 " fill-opacity="1" fill-rule="nonzero"/></g></svg>