<svg xmlns="http://www.w3.org/2000/svg" xmlns:xlink="http://www.w3.org/1999/xlink" width="140" zoomAndPan="magnify" viewBox="0 0 104.88 30.000001" height="40" preserveAspectRatio="xMidYMid meet" version="1.0"><defs><clipPath id="32014408a4"><path d="M 39.34375 4.546875 L 56.710938 4.546875 L 56.710938 24.566406 L 39.34375 24.566406 Z M 39.34375 4.546875 " clip-rule="nonzero"/></clipPath><clipPath id="663acb55d7"><path d="M 83.179688 4.546875 L 100.546875 4.546875 L 100.546875 24.566406 L 83.179688 24.566406 Z M 83.179688 4.546875 " clip-rule="nonzero"/></clipPath><clipPath id="b119e0241f"><path d="M 58.386719 5.992188 L 81.484375 5.992188 L 81.484375 23.070312 L 58.386719 23.070312 Z M 58.386719 5.992188 " clip-rule="nonzero"/></clipPath><clipPath id="d1572ebb9a"><path d="M 6 0.984375 L 31 0.984375 L 31 12 L 6 12 Z M 6 0.984375 " clip-rule="nonzero"/></clipPath><clipPath id="854916f6e2"><path d="M 4.535156 7 L 17 7 L 17 27.839844 L 4.535156 27.839844 Z M 4.535156 7 " clip-rule="nonzero"/></clipPath><clipPath id="16a1353e76"><path d="M 19 7 L 31.390625 7 L 31.390625 27.839844 L 19 27.839844 Z M 19 7 " clip-rule="nonzero"/></clipPath></defs><g clip-path="url(#32014408a4)"><path fill="#ffffff" d="M 56.25 13.648438 L 49.316406 13.648438 C 49.078125 13.648438 48.882812 13.84375 48.882812 14.082031 L 48.882812 16.25 C 48.882812 16.488281 49.078125 16.683594 49.316406 16.683594 L 52.78125 16.683594 L 52.78125 17.007812 C 52.78125 19.390625 51.21875 21.015625 48.449219 21.015625 C 45.214844 21.015625 43.25 18.613281 43.25 14.484375 C 43.25 10.40625 45.167969 8.015625 48.339844 8.015625 C 50.546875 8.015625 51.652344 9 52.453125 10.785156 C 52.523438 10.945312 52.675781 11.046875 52.847656 11.046875 L 56.03125 11.046875 C 56.152344 11.046875 56.25 10.949219 56.25 10.832031 C 56.25 10.8125 56.246094 10.796875 56.242188 10.78125 C 55.339844 6.882812 52.339844 4.546875 48.261719 4.546875 C 42.847656 4.546875 39.347656 8.457031 39.347656 14.507812 C 39.347656 20.660156 42.78125 24.484375 48.3125 24.484375 C 53.398438 24.484375 56.683594 21.28125 56.683594 16.320312 L 56.683594 14.082031 C 56.683594 13.84375 56.488281 13.648438 56.25 13.648438 Z M 56.25 13.648438 " fill-opacity="1" fill-rule="nonzero"/></g><g clip-path="url(#663acb55d7)"><path fill="#ffffff" d="M 97.082031 17.980469 C 96.890625 17.980469 96.730469 18.109375 96.667969 18.289062 C 96.0625 20.046875 94.367188 21.015625 92.1875 21.015625 C 89.007812 21.015625 87.082031 18.613281 87.082031 14.507812 C 87.082031 10.417969 89.007812 8.015625 92.175781 8.015625 C 94.40625 8.015625 96.136719 9.175781 96.707031 11.152344 C 96.761719 11.34375 96.929688 11.480469 97.125 11.480469 C 97.125 11.480469 99.527344 11.484375 100.300781 11.480469 C 100.433594 11.480469 100.535156 11.367188 100.519531 11.238281 C 100.011719 7.351562 96.523438 4.546875 92.175781 4.546875 C 86.628906 4.546875 83.183594 8.367188 83.183594 14.523438 C 83.183594 20.664062 86.632812 24.484375 92.1875 24.484375 C 96.550781 24.484375 99.890625 21.976562 100.515625 18.234375 C 100.539062 18.105469 100.4375 17.984375 100.300781 17.980469 Z M 97.082031 17.980469 " fill-opacity="1" fill-rule="nonzero"/></g><g clip-path="url(#b119e0241f)"><path fill="#498205" d="M 75.453125 20.605469 C 75.101562 20.667969 74.84375 20.976562 74.84375 21.335938 L 74.84375 22.296875 C 74.84375 22.707031 75.175781 23.039062 75.585938 23.039062 L 80.742188 23.039062 C 81.152344 23.039062 81.484375 22.707031 81.484375 22.296875 L 81.484375 6.734375 C 81.484375 6.324219 81.152344 5.992188 80.742188 5.992188 L 78.878906 5.992188 C 78.738281 5.992188 78.601562 6.03125 78.484375 6.105469 L 73.984375 8.9375 L 69.789062 11.578125 L 65.589844 8.9375 L 61.09375 6.105469 C 60.976562 6.03125 60.839844 5.992188 60.699219 5.992188 L 59.128906 5.992188 C 58.71875 5.992188 58.386719 6.324219 58.386719 6.734375 L 58.386719 22.296875 C 58.386719 22.707031 58.71875 23.039062 59.128906 23.039062 L 66.402344 23.039062 C 66.8125 23.039062 67.144531 22.707031 67.144531 22.296875 L 67.144531 21.335938 C 67.144531 20.976562 66.886719 20.667969 66.53125 20.605469 C 63.324219 20.042969 63.324219 17.6875 63.324219 17.6875 L 63.324219 13.21875 L 69.414062 17.675781 C 69.644531 17.84375 69.949219 17.863281 70.199219 17.730469 L 78.664062 13.21875 L 78.664062 17.6875 C 78.664062 17.6875 78.664062 20.042969 75.453125 20.605469 Z M 75.453125 20.605469 " fill-opacity="1" fill-rule="nonzero"/></g><g clip-path="url(#d1572ebb9a)"><path fill="#498205" d="M 30.128906 6.011719 L 18.066406 0.984375 L 6.003906 6.011719 L 18.066406 11.039062 Z M 30.128906 6.011719 " fill-opacity="1" fill-rule="nonzero"/></g><g clip-path="url(#854916f6e2)"><path fill="#498205" d="M 16.9375 28.042969 L 16.9375 13.011719 L 4.535156 7.84375 L 4.535156 22.878906 Z M 16.9375 28.042969 " fill-opacity="1" fill-rule="nonzero"/></g><g clip-path="url(#16a1353e76)"><path fill="#498205" d="M 19.195312 28.042969 L 19.195312 13.011719 L 31.597656 7.84375 L 31.597656 22.878906 Z M 19.195312 28.042969 " fill-opacity="1" fill-rule="nonzero"/></g></svg>